<?xml version="1.0" encoding="UTF-8"?>
<svg xmlns="http://www.w3.org/2000/svg" xmlns:xlink="http://www.w3.org/1999/xlink" width="285pt" height="391pt" viewBox="0 0 285 391" version="1.1">
<g id="surface1">
<path style=" stroke:none;fill-rule:nonzero;fill:rgb(13.699341%,12.199402%,12.5%);fill-opacity:1;" d="M 218.246094 159.355469 C 226.535156 167.53125 233.226563 176.535156 238.722656 186.125 C 244.234375 195.738281 248.558594 205.953125 252.105469 216.523438 C 252.105469 216.523438 252.128906 216.609375 252.128906 216.613281 C 253.546875 222.613281 260.957031 232.410156 268.289063 242.109375 C 275.65625 251.855469 282.953125 261.507813 284.300781 267.554688 L 284.308594 267.582031 C 284.484375 268.511719 284.332031 269.625 283.898438 270.863281 C 282.449219 275.007813 277.636719 281.035156 271.34375 286.34375 C 265.0625 291.636719 257.269531 296.269531 249.824219 297.667969 C 246.183594 298.351563 242.617188 298.265625 239.339844 297.117188 C 239.335938 297.117188 239.21875 297.066406 239.214844 297.066406 C 236.574219 295.707031 234.464844 291.542969 232.585938 287.285156 C 232.457031 289.558594 232.261719 291.839844 232.011719 293.851563 C 231.636719 296.878906 231.121094 299.355469 230.507813 300.414063 L 230.480469 300.460938 C 230.0625 301.09375 229.441406 301.738281 228.625 302.199219 C 228.503906 302.265625 228.378906 302.328125 228.25 302.386719 C 232.453125 306.074219 236.015625 310.28125 238.933594 314.996094 C 241.957031 319.882813 244.289063 325.308594 245.929688 331.277344 C 252.878906 326.464844 260.191406 322.855469 266.480469 321.40625 C 272.648438 319.988281 277.894531 320.628906 281.015625 324.191406 C 283.269531 326.761719 283.945313 331.089844 283.238281 336.347656 C 282.429688 342.335938 279.835938 349.613281 275.753906 356.859375 C 271.683594 364.085938 266.121094 371.3125 259.378906 377.226563 C 248.875 386.433594 235.503906 392.460938 220.390625 390.429688 C 204.996094 388.355469 195.628906 373.605469 186.398438 359.0625 C 179.976563 348.953125 173.621094 338.941406 165.464844 333.644531 C 155.769531 340.3125 145.195313 344.691406 133.542969 346.390625 C 121.992188 348.078125 109.398438 347.128906 95.570313 343.175781 C 95.261719 344.667969 94.746094 346.125 94.058594 347.523438 L 94.0625 347.519531 C 91.277344 353.179688 85.578125 357.976563 78.59375 361.070313 C 71.660156 364.136719 63.433594 365.539063 55.535156 364.441406 C 51.894531 363.9375 48.324219 362.902344 44.984375 361.261719 C 44.984375 361.261719 44.914063 361.21875 44.914063 361.21875 C 41.675781 359.285156 39.609375 355.910156 38.601563 351.664063 C 37.464844 346.90625 37.65625 341.019531 39 334.882813 C 40.335938 328.789063 42.820313 322.414063 46.273438 316.621094 C 51.390625 308.046875 58.652344 300.738281 67.519531 297.457031 C 40.515625 290.941406 27.109375 286.738281 24.542969 279.144531 C 21.9375 271.410156 30.667969 260.878906 47.84375 241.5625 C 40.238281 242.0625 34.316406 242.339844 27.453125 239.589844 C 24.214844 238.289063 16.296875 231.320313 9.980469 222.75 C 5.601563 216.8125 1.945313 210.070313 1.058594 203.839844 C -0.433594 193.382813 9.960938 187.054688 23.441406 178.847656 C 27.976563 176.085938 32.875 173.105469 37.78125 169.679688 C 38.070313 167.226563 38.613281 164.785156 39.585938 162.445313 C 40.542969 160.136719 41.921875 157.929688 43.875 155.910156 C 43.910156 155.847656 43.957031 155.789063 44.011719 155.734375 C 43.472656 151.957031 44.363281 148.042969 46.6875 144 C 48.863281 140.203125 52.324219 136.285156 57.050781 132.242188 C 56.792969 132.175781 56.53125 132.097656 56.277344 132.011719 C 55.929688 131.898438 55.578125 131.78125 55.5625 131.335938 C 53.359375 130.078125 51.765625 128.746094 50.695313 127.363281 C 48.421875 124.421875 48.460938 121.300781 50.039063 118.183594 C 51.519531 115.257813 54.394531 112.351563 57.957031 109.617188 C 67.296875 102.445313 81.527344 96.300781 87.449219 94.160156 C 89.621094 86.820313 91.128906 79.191406 92.070313 71.320313 C 93.023438 63.378906 93.402344 55.183594 93.3125 46.78125 C 88.382813 40.472656 86.734375 34.183594 87.359375 28.417969 C 87.894531 23.445313 90.125 18.886719 93.390625 15.058594 C 96.628906 11.265625 100.898438 8.1875 105.542969 6.148438 C 112.523438 3.082031 120.382813 2.347656 126.9375 5.003906 C 135.394531 1.15625 147.769531 -0.742188 159.332031 0.539063 C 166.71875 1.355469 173.796875 3.472656 179.347656 7.207031 C 184.972656 10.992188 189.023438 16.414063 190.253906 23.804688 C 191.242188 29.753906 190.386719 36.960938 187.027344 45.589844 C 186.546875 47.148438 186.480469 49.226563 186.722656 51.421875 C 186.960938 53.558594 187.492188 55.789063 188.226563 57.753906 C 203.054688 54.90625 214.015625 56.769531 221.097656 63.347656 C 228.269531 70.011719 231.363281 81.4375 230.378906 97.617188 C 231.726563 104.410156 238.875 109.871094 245.378906 114.839844 C 251.9375 119.851563 257.878906 124.394531 257.320313 129.785156 C 257.347656 132.132813 254.660156 134.246094 250.761719 135.734375 C 248.285156 136.675781 245.289063 137.402344 242.230469 137.78125 C 239.171875 138.160156 236.019531 138.195313 233.222656 137.765625 C 229.382813 137.175781 226.207031 135.695313 224.75 133.015625 C 224.457031 133.488281 224.15625 133.960938 223.835938 134.433594 C 221.289063 138.21875 217.886719 142.109375 213.660156 146.007813 C 215.9375 150.453125 217.394531 154.90625 218.246094 159.355469 "/>
<path style=" stroke:none;fill-rule:nonzero;fill:rgb(85.9375%,57.226563%,21.972656%);fill-opacity:1;" d="M 205.738281 106.042969 C 207.257813 105.835938 208.78125 105.640625 210.316406 105.457031 C 209.082031 104.445313 207.644531 103.535156 205.996094 102.75 C 206.226563 103.1875 206.359375 103.671875 206.359375 104.1875 C 206.359375 104.875 206.128906 105.511719 205.738281 106.042969 "/>
<path style=" stroke:none;fill-rule:nonzero;fill:rgb(85.9375%,57.226563%,21.972656%);fill-opacity:1;" d="M 172.054688 113.234375 C 177.222656 111.710938 182.484375 110.363281 187.839844 109.203125 C 191.992188 108.300781 196.203125 107.511719 200.476563 106.828125 C 200.371094 106.753906 200.269531 106.671875 200.175781 106.585938 C 199.488281 105.976563 199.058594 105.128906 199.058594 104.1875 C 199.058594 103.246094 199.488281 102.398438 200.175781 101.789063 C 200.527344 101.480469 200.941406 101.234375 201.40625 101.070313 C 198.777344 100.355469 195.777344 99.898438 192.378906 99.773438 C 184.972656 99.859375 177.128906 102.398438 169.082031 106.078125 C 170.191406 106.160156 171.195313 106.601563 171.949219 107.269531 C 172.820313 108.039063 173.363281 109.109375 173.363281 110.296875 C 173.363281 111.4375 172.863281 112.472656 172.054688 113.234375 "/>
<path style=" stroke:none;fill-rule:nonzero;fill:rgb(0%,68.199158%,93.699646%);fill-opacity:1;" d="M 225.296875 110.527344 C 225.304688 110.40625 225.359375 110.28125 225.480469 110.152344 C 225.601563 109.855469 225.664063 109.550781 225.664063 109.234375 C 225.664063 108.246094 225.027344 107.316406 224.007813 106.621094 C 222.875 105.851563 221.292969 105.371094 219.53125 105.371094 C 217.878906 105.371094 216.378906 105.796875 215.265625 106.484375 C 215.167969 106.796875 214.925781 106.886719 214.652344 106.925781 C 213.867188 107.578125 213.398438 108.382813 213.398438 109.234375 C 213.398438 110.226563 214.035156 111.15625 215.058594 111.851563 C 216.191406 112.621094 217.773438 113.101563 219.53125 113.101563 C 221.292969 113.101563 222.875 112.621094 224.007813 111.851563 C 224.566406 111.472656 225.007813 111.023438 225.296875 110.527344 "/>
<path style=" stroke:none;fill-rule:nonzero;fill:rgb(85.9375%,57.226563%,21.972656%);fill-opacity:1;" d="M 144.121094 142.015625 C 148.390625 144.09375 152.746094 146.039063 157.164063 147.84375 C 168.863281 152.621094 181.003906 156.375 193.191406 158.710938 C 206.882813 150.402344 216.675781 141.601563 222.222656 133.351563 C 227.457031 125.574219 228.886719 118.324219 226.21875 112.511719 C 225.894531 112.855469 225.519531 113.171875 225.101563 113.457031 C 223.660156 114.4375 221.6875 115.046875 219.53125 115.046875 C 217.378906 115.046875 215.40625 114.4375 213.964844 113.457031 C 212.414063 112.402344 211.453125 110.910156 211.453125 109.234375 C 211.453125 108.523438 211.625 107.847656 211.945313 107.222656 C 203.863281 108.136719 195.964844 109.429688 188.246094 111.105469 C 179.753906 112.945313 171.488281 115.253906 163.453125 118.019531 C 162.996094 118.175781 162.535156 118.335938 162.21875 117.414063 C 161.90625 116.492188 162.363281 116.335938 162.824219 116.179688 C 164.53125 115.589844 166.242188 115.027344 167.972656 114.480469 C 167.003906 114.339844 166.128906 113.925781 165.457031 113.328125 C 164.585938 112.558594 164.046875 111.484375 164.046875 110.296875 C 164.046875 109.535156 164.265625 108.824219 164.65625 108.203125 C 159.046875 111.007813 153.367188 114.242188 147.683594 117.480469 C 144.578125 119.246094 141.46875 121.019531 138.378906 122.71875 C 139.054688 126.160156 139.863281 129.476563 140.804688 132.65625 C 141.773438 135.929688 142.878906 139.050781 144.121094 142.015625 "/>
<path style=" stroke:none;fill-rule:nonzero;fill:rgb(9.399414%,73.699951%,91.398621%);fill-opacity:1;" d="M 186.328125 58.214844 C 185.578125 56.160156 185.039063 53.847656 184.789063 51.632813 C 184.519531 49.175781 184.609375 46.808594 185.183594 44.980469 L 185.203125 44.914063 C 188.4375 36.621094 189.269531 29.746094 188.335938 24.121094 C 187.203125 17.316406 183.464844 12.3125 178.269531 8.820313 C 172.996094 5.273438 166.21875 3.257813 159.117188 2.46875 C 147.71875 1.210938 135.535156 3.113281 127.363281 6.945313 C 127.21875 7.011719 126.71875 7.023438 126.570313 6.960938 C 120.453125 4.324219 112.980469 5 106.320313 7.925781 C 101.9375 9.851563 97.914063 12.75 94.867188 16.324219 C 91.84375 19.863281 89.78125 24.0625 89.289063 28.625 C 88.710938 33.984375 90.300781 39.878906 95.042969 45.835938 C 95.105469 45.914063 95.253906 46.328125 95.253906 46.429688 C 95.355469 55.019531 94.976563 63.40625 94 71.550781 C 93.5625 75.199219 93.003906 78.800781 92.320313 82.34375 C 101.265625 86.289063 110.597656 88.542969 120.207031 89.609375 C 129.941406 90.6875 139.992188 90.546875 150.234375 89.707031 C 151.140625 88.703125 152.125 87.011719 153.332031 84.941406 C 157.933594 77.035156 165.644531 63.796875 186.328125 58.214844 "/>
<path style=" stroke:none;fill-rule:nonzero;fill:rgb(9.399414%,73.699951%,91.398621%);fill-opacity:1;" d="M 225.996094 130.875 C 226.675781 133.722656 229.6875 135.253906 233.519531 135.84375 L 233.519531 135.847656 C 236.117188 136.246094 239.085938 136.210938 241.996094 135.851563 C 244.902344 135.488281 247.738281 134.804688 250.070313 133.914063 C 253.234375 132.710938 255.417969 131.210938 255.371094 129.785156 C 255.371094 129.78125 255.378906 129.652344 255.378906 129.644531 C 255.882813 125.308594 250.332031 121.066406 244.203125 116.382813 C 237.371094 111.164063 229.863281 105.429688 228.445313 97.847656 C 228.441406 97.835938 228.425781 97.628906 228.425781 97.613281 C 229.390625 81.976563 226.507813 71.027344 219.773438 64.769531 C 213.101563 58.574219 202.550781 56.90625 188.121094 59.757813 C 188.066406 59.773438 188.007813 59.785156 187.949219 59.800781 C 167.191406 64.992188 159.542969 78.128906 155.011719 85.914063 C 153.699219 88.171875 152.632813 89.996094 151.542969 91.148438 C 151.472656 91.382813 151.328125 91.496094 151.15625 91.554688 C 146.011719 96.894531 140.203125 101.355469 134.140625 105.007813 C 127.125 109.230469 119.753906 112.386719 112.664063 114.578125 C 112.199219 114.722656 111.734375 114.867188 111.449219 113.9375 C 111.164063 113.011719 111.628906 112.867188 112.09375 112.722656 C 119.035156 110.574219 126.257813 107.484375 133.136719 103.34375 C 133.652344 103.03125 134.164063 102.71875 134.671875 102.394531 C 127.863281 102.703125 120.925781 102.351563 113.902344 101.414063 C 105.648438 100.3125 97.3125 98.394531 88.976563 95.773438 C 87.476563 99.769531 84.472656 103.175781 82.210938 105.734375 C 80.863281 107.265625 79.808594 108.460938 79.675781 109.011719 C 80.027344 109.746094 83.292969 109.746094 84.828125 109.375 C 85.300781 109.261719 85.773438 109.148438 86 110.097656 C 86.222656 111.042969 85.75 111.15625 85.277344 111.269531 C 83.078125 111.800781 78.183594 111.152344 77.761719 109.398438 L 77.765625 109.40625 C 77.730469 109.269531 77.714844 109.144531 77.714844 109.019531 C 77.714844 109.019531 77.714844 108.945313 77.714844 108.945313 C 77.800781 107.800781 79.085938 106.34375 80.757813 104.449219 C 82.617188 102.347656 85.003906 99.644531 86.507813 96.585938 C 80.007813 99.097656 67.53125 104.710938 59.136719 111.160156 C 55.789063 113.730469 53.109375 116.417969 51.773438 119.058594 C 50.535156 121.5 50.488281 123.921875 52.234375 126.175781 C 53.390625 127.671875 55.308594 129.125 58.144531 130.496094 C 60.40625 130.953125 63.019531 130.824219 66.132813 130.671875 C 69.617188 130.503906 73.707031 130.300781 78.679688 130.832031 C 78.785156 130.828125 78.882813 130.835938 78.976563 130.863281 C 84.101563 131.433594 90.160156 132.785156 97.449219 135.734375 C 99.433594 136.101563 102.617188 135.554688 106.082031 134.601563 C 120.015625 130.777344 134.421875 122.800781 146.726563 115.789063 C 162.351563 106.894531 178.003906 97.980469 192.390625 97.828125 L 192.433594 97.828125 C 197.09375 97.996094 201.074219 98.769531 204.414063 99.984375 C 207.945313 101.269531 210.757813 103.0625 212.894531 105.164063 C 213.230469 105.128906 213.570313 105.09375 213.90625 105.054688 C 213.925781 105.042969 213.945313 105.027344 213.964844 105.015625 C 215.40625 104.035156 217.378906 103.425781 219.53125 103.425781 C 221.6875 103.425781 223.660156 104.035156 225.101563 105.015625 C 226.648438 106.070313 227.613281 107.5625 227.613281 109.234375 C 227.613281 109.6875 227.539063 110.128906 227.40625 110.550781 C 230.617188 116.304688 230.066406 123.335938 225.996094 130.875 "/>
<path style=" stroke:none;fill-rule:nonzero;fill:rgb(100%,98.799133%,83.499146%);fill-opacity:1;" d="M 191.054688 251.648438 C 191.699219 254.261719 192.523438 256.554688 193.414063 258.316406 C 194.535156 260.527344 195.648438 261.828125 196.488281 261.691406 C 197.324219 261.550781 197.957031 259.957031 198.300781 257.503906 C 198.578125 255.488281 198.605469 252.96875 198.347656 250.191406 C 197.175781 250.160156 195.976563 250.269531 194.785156 250.507813 C 193.519531 250.757813 192.261719 251.148438 191.054688 251.648438 "/>
<path style=" stroke:none;fill-rule:nonzero;fill:rgb(92.89856%,10.998535%,14.099121%);fill-opacity:1;" d="M 226.140625 200.074219 C 226.195313 200.46875 226.257813 200.871094 226.324219 201.273438 C 226.4375 201.949219 226.5625 202.609375 226.699219 203.253906 C 226.773438 203.285156 226.855469 203.3125 226.933594 203.335938 C 227.0625 203.367188 227.203125 203.386719 227.34375 203.386719 C 227.804688 203.386719 228.226563 203.179688 228.539063 202.847656 C 228.863281 202.496094 229.066406 202.003906 229.066406 201.457031 C 229.066406 200.910156 228.867188 200.414063 228.539063 200.0625 C 228.230469 199.730469 227.804688 199.523438 227.34375 199.523438 C 227.089844 199.523438 226.851563 199.585938 226.636719 199.691406 C 226.449219 199.789063 226.28125 199.917969 226.140625 200.074219 "/>
<path style=" stroke:none;fill-rule:nonzero;fill:rgb(100%,98.799133%,83.499146%);fill-opacity:1;" d="M 247.433594 229.359375 C 246.847656 229.457031 246.386719 230.6875 246.125 232.585938 C 245.921875 234.039063 245.882813 235.824219 246.03125 237.789063 C 246.417969 237.644531 246.839844 237.558594 247.273438 237.558594 C 248.296875 237.558594 249.222656 238.007813 249.890625 238.722656 C 250.539063 239.425781 250.945313 240.386719 250.945313 241.4375 C 250.945313 242.492188 250.539063 243.453125 249.890625 244.152344 C 249.246094 244.847656 248.359375 245.285156 247.378906 245.316406 C 247.832031 246.863281 248.355469 248.230469 248.914063 249.339844 C 249.78125 251.046875 250.613281 252.0625 251.199219 251.964844 C 251.789063 251.863281 252.246094 250.636719 252.511719 248.738281 C 252.820313 246.492188 252.742188 243.460938 252.195313 240.179688 C 251.648438 236.902344 250.742188 234.007813 249.71875 231.984375 C 248.851563 230.273438 248.019531 229.261719 247.433594 229.359375 "/>
<path style=" stroke:none;fill-rule:nonzero;fill:rgb(100%,98.799133%,83.499146%);fill-opacity:1;" d="M 191.746094 233.257813 C 190.910156 233.394531 190.277344 234.988281 189.9375 237.445313 C 189.648438 239.507813 189.628906 242.105469 189.90625 244.960938 C 191.015625 244.464844 192.203125 244.09375 193.425781 243.855469 C 194.671875 243.613281 195.960938 243.511719 197.242188 243.5625 C 196.585938 240.839844 195.742188 238.449219 194.820313 236.628906 C 193.699219 234.417969 192.585938 233.117188 191.746094 233.257813 "/>
<path style=" stroke:none;fill-rule:nonzero;fill:rgb(92.89856%,10.998535%,14.099121%);fill-opacity:1;" d="M 200.328125 250.613281 C 209.703125 250.945313 218.082031 250.792969 225.519531 249.84375 C 232.867188 248.902344 239.328125 247.1875 244.980469 244.394531 C 244.910156 244.253906 244.902344 244.074219 244.988281 243.835938 C 244.8125 243.066406 244.65625 242.273438 244.523438 241.460938 C 244.445313 241.007813 244.378906 240.558594 244.320313 240.117188 C 244.027344 239.789063 244.074219 239.527344 244.21875 239.285156 C 244.203125 239.132813 244.183594 238.984375 244.171875 238.835938 C 236.707031 238.339844 229.257813 238.351563 221.828125 239.203125 C 214.378906 240.058594 206.925781 241.757813 199.476563 244.632813 C 199.644531 245.347656 199.789063 246.070313 199.898438 246.800781 C 199.96875 247.246094 200.023438 247.6875 200.066406 248.128906 C 200.066406 248.140625 200.070313 248.152344 200.070313 248.164063 C 200.179688 248.996094 200.265625 249.816406 200.328125 250.613281 "/>
<path style=" stroke:none;fill-rule:nonzero;fill:rgb(13.699341%,12.199402%,12.5%);fill-opacity:1;" d="M 214.3125 132.367188 C 211.640625 135.914063 208.597656 137.710938 205.1875 137.753906 C 201.847656 137.792969 198.222656 136.128906 194.316406 132.753906 C 193.949219 132.433594 193.582031 132.117188 194.21875 131.382813 C 194.851563 130.648438 195.21875 130.964844 195.589844 131.285156 C 199.117188 134.332031 202.308594 135.839844 205.164063 135.804688 C 207.945313 135.769531 210.476563 134.238281 212.761719 131.203125 C 213.054688 130.816406 213.347656 130.425781 214.121094 131.007813 C 214.898438 131.589844 214.605469 131.976563 214.3125 132.367188 "/>
<path style=" stroke:none;fill-rule:nonzero;fill:rgb(85.9375%,57.226563%,21.972656%);fill-opacity:1;" d="M 139.828125 139.871094 C 140.386719 140.160156 140.945313 140.441406 141.507813 140.722656 C 140.5625 138.300781 139.707031 135.792969 138.941406 133.203125 C 138.039063 130.148438 137.253906 126.972656 136.589844 123.691406 C 136.183594 123.910156 135.78125 124.125 135.375 124.34375 C 135.9375 127.070313 136.585938 129.714844 137.3125 132.265625 C 138.0625 134.890625 138.902344 137.429688 139.828125 139.871094 "/>
<path style=" stroke:none;fill-rule:nonzero;fill:rgb(85.9375%,57.226563%,21.972656%);fill-opacity:1;" d="M 136.160156 137.949219 C 136.527344 138.148438 136.898438 138.347656 137.269531 138.539063 C 136.613281 136.675781 136.003906 134.757813 135.441406 132.796875 C 134.746094 130.359375 134.128906 127.855469 133.585938 125.289063 C 133.300781 125.4375 133.019531 125.585938 132.734375 125.730469 C 133.1875 127.824219 133.691406 129.859375 134.246094 131.84375 C 134.824219 133.921875 135.460938 135.960938 136.160156 137.949219 "/>
<path style=" stroke:none;fill-rule:nonzero;fill:rgb(85.9375%,57.226563%,21.972656%);fill-opacity:1;" d="M 130.960938 135.078125 C 131.851563 135.585938 132.746094 136.085938 133.644531 136.585938 C 133.195313 135.207031 132.773438 133.796875 132.375 132.359375 C 131.855469 130.488281 131.378906 128.585938 130.945313 126.640625 C 130.28125 126.976563 129.617188 127.304688 128.953125 127.628906 C 129.230469 128.820313 129.53125 130.019531 129.847656 131.214844 C 130.195313 132.511719 130.566406 133.800781 130.960938 135.078125 "/>
<path style=" stroke:none;fill-rule:nonzero;fill:rgb(85.9375%,57.226563%,21.972656%);fill-opacity:1;" d="M 126.816406 132.664063 C 127.378906 133 127.945313 133.332031 128.511719 133.664063 C 128.324219 133.019531 128.144531 132.371094 127.96875 131.710938 C 127.691406 130.660156 127.421875 129.585938 127.160156 128.480469 C 126.734375 128.679688 126.308594 128.878906 125.886719 129.070313 C 126.011719 129.589844 126.140625 130.105469 126.269531 130.609375 C 126.449219 131.316406 126.632813 132.007813 126.816406 132.664063 "/>
<path style=" stroke:none;fill-rule:nonzero;fill:rgb(85.9375%,57.226563%,21.972656%);fill-opacity:1;" d="M 123 130.332031 C 123.46875 130.625 123.941406 130.917969 124.414063 131.207031 C 124.402344 131.171875 124.394531 131.128906 124.386719 131.089844 C 124.28125 130.683594 124.179688 130.277344 124.078125 129.871094 C 123.71875 130.027344 123.359375 130.183594 123 130.332031 "/>
<path style=" stroke:none;fill-rule:nonzero;fill:rgb(92.89856%,10.998535%,14.099121%);fill-opacity:1;" d="M 59.558594 132.664063 C 59.554688 132.671875 59.550781 132.671875 59.546875 132.675781 C 54.355469 136.9375 50.628906 141.035156 48.375 144.964844 C 46.523438 148.1875 45.675781 151.292969 45.824219 154.277344 C 49.113281 151.839844 52.566406 150.269531 56.1875 149.175781 C 57.328125 148.828125 58.488281 148.53125 59.667969 148.269531 C 59.507813 143.265625 61.125 139.242188 64.226563 136.296875 C 65.945313 134.664063 68.109375 133.378906 70.667969 132.453125 C 69.078125 132.480469 67.601563 132.550781 66.222656 132.621094 C 63.742188 132.742188 61.5625 132.851563 59.558594 132.664063 "/>
<path style=" stroke:none;fill-rule:nonzero;fill:rgb(13.699341%,12.199402%,12.5%);fill-opacity:1;" d="M 120.464844 50.351563 C 129.265625 51.117188 137.644531 50.355469 145.589844 48.074219 C 153.546875 45.792969 161.09375 41.984375 168.226563 36.648438 C 168.617188 36.359375 169.003906 36.066406 169.585938 36.847656 C 170.167969 37.625 169.777344 37.917969 169.390625 38.207031 C 162.066406 43.683594 154.308594 47.597656 146.121094 49.945313 C 137.929688 52.296875 129.320313 53.082031 120.296875 52.300781 C 119.8125 52.257813 119.324219 52.214844 119.410156 51.242188 C 119.492188 50.269531 119.976563 50.3125 120.464844 50.351563 "/>
<path style=" stroke:none;fill-rule:nonzero;fill:rgb(13.699341%,12.199402%,12.5%);fill-opacity:1;" d="M 200.804688 168.882813 C 201.941406 171.964844 204.265625 175.210938 206.535156 178.382813 C 208.820313 181.578125 211.054688 184.703125 212.113281 187.671875 C 212.277344 188.128906 212.441406 188.585938 211.527344 188.914063 C 210.609375 189.238281 210.445313 188.78125 210.28125 188.324219 C 209.308594 185.597656 207.15625 182.585938 204.953125 179.507813 C 202.605469 176.230469 200.207031 172.875 198.980469 169.550781 C 198.808594 169.09375 198.640625 168.636719 199.554688 168.304688 C 200.464844 167.96875 200.636719 168.425781 200.804688 168.882813 "/>
<path style=" stroke:none;fill-rule:nonzero;fill:rgb(92.89856%,10.998535%,14.099121%);fill-opacity:1;" d="M 45.554688 156.964844 C 43.632813 158.875 42.296875 160.980469 41.378906 163.1875 C 40.425781 165.484375 39.914063 167.898438 39.664063 170.320313 C 39.648438 170.488281 39.394531 170.921875 39.257813 171.019531 C 34.203125 174.570313 29.136719 177.65625 24.453125 180.507813 C 11.589844 188.335938 1.671875 194.375 2.980469 203.566406 C 3.820313 209.4375 7.332031 215.886719 11.546875 221.601563 C 17.660156 229.894531 25.167969 236.578125 28.175781 237.785156 C 34.863281 240.46875 40.789063 240.074219 48.566406 239.5625 C 48.960938 239.535156 49.367188 239.507813 49.773438 239.480469 C 49.878906 239.464844 49.992188 239.453125 50.101563 239.445313 C 54.050781 239.195313 58.15625 237.007813 61.128906 231.597656 C 63.574219 227.140625 65.257813 220.523438 65.472656 211.058594 C 65.402344 211.074219 65.332031 211.085938 65.261719 211.101563 C 61.890625 211.78125 58.457031 212.214844 55.09375 212.367188 C 52.898438 214.164063 50.816406 215.660156 48.855469 216.859375 C 45.125 219.144531 41.800781 220.363281 38.941406 220.476563 C 35.929688 220.597656 33.445313 219.523438 31.550781 217.222656 C 31.222656 216.820313 30.914063 216.382813 30.628906 215.914063 C 30.375 215.5 30.121094 215.085938 30.949219 214.578125 C 31.777344 214.074219 32.03125 214.488281 32.285156 214.90625 C 32.527344 215.304688 32.785156 215.664063 33.050781 215.988281 C 34.527344 217.789063 36.484375 218.625 38.863281 218.53125 C 41.394531 218.429688 44.40625 217.308594 47.84375 215.203125 C 49.136719 214.414063 50.488281 213.488281 51.886719 212.429688 C 49.835938 212.410156 47.824219 212.277344 45.898438 212.027344 C 37.203125 210.894531 30.136719 207.289063 27.71875 200.464844 C 27.558594 200.007813 27.398438 199.546875 28.3125 199.226563 C 29.226563 198.902344 29.390625 199.359375 29.554688 199.820313 C 31.6875 205.851563 38.152344 209.0625 46.148438 210.105469 C 48.796875 210.449219 51.617188 210.558594 54.5 210.449219 C 54.574219 210.429688 54.652344 210.425781 54.734375 210.4375 C 58.078125 210.300781 61.511719 209.871094 64.878906 209.191406 C 71.234375 207.914063 77.34375 205.742188 82.191406 202.925781 C 84.183594 201.769531 85.964844 200.503906 87.449219 199.148438 C 87.585938 198.839844 87.757813 198.714844 87.949219 198.679688 C 90.832031 195.890625 92.480469 192.742188 92.257813 189.398438 C 92.226563 188.914063 92.195313 188.429688 93.167969 188.367188 C 94.140625 188.304688 94.171875 188.789063 94.207031 189.277344 C 94.445313 192.867188 92.917969 196.210938 90.175781 199.179688 C 94.917969 200.234375 98.367188 199.648438 100.699219 197.65625 C 103.324219 195.414063 104.660156 191.335938 104.941406 185.769531 C 104.96875 185.28125 104.992188 184.796875 105.964844 184.84375 C 106.9375 184.886719 106.914063 185.375 106.890625 185.859375 C 106.582031 191.964844 105.03125 196.511719 101.960938 199.132813 C 98.941406 201.710938 94.550781 202.375 88.539063 200.777344 C 86.992188 202.15625 85.179688 203.4375 83.164063 204.605469 C 78.683594 207.207031 73.195313 209.277344 67.429688 210.628906 C 67.429688 210.675781 67.429688 210.71875 67.425781 210.765625 C 67.234375 220.75 65.449219 227.769531 62.832031 232.535156 C 59.582031 238.453125 55.050781 240.957031 50.621094 241.363281 C 33.0625 261.082031 24.054688 271.621094 26.386719 278.527344 C 28.742188 285.515625 42.8125 289.5625 71.445313 296.398438 C 71.492188 296.410156 71.53125 296.425781 71.574219 296.441406 C 96.398438 300.34375 121.785156 302.480469 147.578125 303.144531 C 173.289063 303.808594 199.414063 303.003906 225.78125 301.015625 C 225.890625 300.964844 226.011719 300.929688 226.144531 300.925781 C 226.738281 300.90625 227.253906 300.742188 227.675781 300.503906 C 228.1875 300.214844 228.578125 299.808594 228.84375 299.40625 C 229.3125 298.5625 229.738281 296.371094 230.082031 293.617188 C 230.4375 290.753906 230.679688 287.335938 230.773438 284.175781 C 230.722656 284.011719 230.730469 283.820313 230.738281 283.628906 C 230.976563 278.296875 231.085938 272.835938 231.015625 267.261719 C 230.949219 261.992188 230.722656 256.589844 230.304688 251.066406 C 228.828125 251.335938 227.316406 251.566406 225.765625 251.765625 C 218.21875 252.730469 209.808594 252.894531 200.441406 252.566406 C 200.507813 254.496094 200.433594 256.257813 200.222656 257.769531 C 199.757813 261.097656 198.582031 263.3125 196.808594 263.605469 C 195.03125 263.902344 193.199219 262.191406 191.683594 259.191406 C 190.660156 257.175781 189.726563 254.527344 189.027344 251.519531 C 188.988281 251.449219 188.964844 251.371094 188.945313 251.292969 C 188.875 250.949219 189.019531 251.675781 188.886719 251.007813 L 188.890625 251.011719 C 188.570313 249.472656 188.28125 248.074219 188.132813 246.566406 C 187.679688 243.003906 187.660156 239.726563 188.011719 237.179688 C 188.476563 233.847656 189.652344 231.636719 191.429688 231.339844 C 193.203125 231.042969 195.035156 232.753906 196.554688 235.753906 C 197.492188 237.613281 198.351563 240.007813 199.03125 242.71875 C 206.558594 239.84375 214.085938 238.132813 221.609375 237.269531 C 229.101563 236.410156 236.574219 236.386719 244.027344 236.871094 C 243.957031 235.179688 244.019531 233.628906 244.199219 232.320313 C 244.585938 229.546875 245.589844 227.699219 247.113281 227.441406 C 248.640625 227.1875 250.1875 228.613281 251.449219 231.109375 C 252.558594 233.296875 253.535156 236.390625 254.113281 239.863281 C 254.691406 243.332031 254.769531 246.574219 254.433594 249.003906 C 254.046875 251.777344 253.046875 253.625 251.519531 253.878906 C 249.996094 254.132813 248.445313 252.710938 247.183594 250.214844 C 246.617188 249.097656 246.089844 247.753906 245.628906 246.238281 C 241.566406 248.222656 237.109375 249.671875 232.234375 250.691406 C 232.664063 256.277344 232.894531 261.804688 232.960938 267.238281 C 233.027344 272.519531 232.9375 277.683594 232.730469 282.714844 C 232.964844 283.257813 233.148438 283.683594 233.339844 284.132813 C 235.335938 288.785156 237.554688 293.972656 240.050781 295.308594 C 242.96875 296.3125 246.171875 296.375 249.46875 295.757813 C 256.550781 294.429688 264.03125 289.96875 270.089844 284.859375 C 276.132813 279.761719 280.722656 274.066406 282.066406 270.222656 C 282.390625 269.304688 282.511719 268.527344 282.402344 267.941406 L 282.410156 267.96875 C 281.152344 262.347656 273.980469 252.859375 266.738281 243.28125 C 259.296875 233.433594 251.777344 223.488281 250.246094 217.085938 C 246.746094 206.660156 242.480469 196.582031 237.035156 187.089844 C 232.039063 178.378906 226.050781 170.164063 218.761719 162.640625 C 219.273438 166.691406 219.316406 170.738281 219.050781 174.773438 C 219.019531 175.289063 218.46875 175.742188 217.953125 175.675781 C 215.75 175.378906 213.019531 174.546875 209.453125 172.855469 C 206.328125 171.371094 202.535156 169.21875 197.851563 166.175781 C 198.0625 168.519531 197.871094 170.671875 197.332031 172.652344 C 196.625 175.234375 195.324219 177.519531 193.539063 179.5625 C 193.375 179.753906 192.847656 179.925781 192.601563 179.871094 C 181.238281 177.335938 169.203125 168.886719 157.605469 160.746094 C 146.90625 153.238281 136.585938 145.996094 127.753906 144.078125 C 127.277344 143.976563 126.804688 143.875 127.007813 142.921875 C 127.214844 141.972656 127.6875 142.074219 128.164063 142.179688 C 137.378906 144.175781 147.859375 151.535156 158.722656 159.15625 C 169.972656 167.054688 181.636719 175.242188 192.453125 177.847656 C 193.847656 176.140625 194.875 174.25 195.453125 172.140625 C 196.082031 169.835938 196.179688 167.257813 195.648438 164.359375 C 195.496094 163.550781 196.453125 162.917969 197.136719 163.375 C 202.570313 166.996094 206.851563 169.46875 210.28125 171.097656 C 213.105469 172.4375 215.339844 173.203125 217.167969 173.578125 C 217.390625 169.226563 217.234375 164.882813 216.488281 160.558594 C 216.46875 160.4375 216.445313 160.320313 216.425781 160.199219 C 216.386719 160.121094 216.367188 160.035156 216.375 159.9375 C 215.597656 155.746094 214.253906 151.550781 212.164063 147.359375 C 207.121094 151.8125 201.011719 156.257813 193.878906 160.566406 C 193.773438 160.628906 193.320313 160.710938 193.199219 160.6875 C 180.742188 158.328125 168.351563 154.515625 156.433594 149.648438 C 151.839844 147.769531 147.3125 145.742188 142.878906 143.574219 C 142.855469 143.566406 142.832031 143.554688 142.808594 143.542969 C 140.203125 142.265625 137.625 140.945313 135.085938 139.585938 C 134.871094 139.570313 134.734375 139.476563 134.636719 139.34375 C 133.007813 138.460938 131.390625 137.566406 129.792969 136.652344 C 129.613281 136.628906 129.496094 136.546875 129.410156 136.433594 C 126.480469 134.753906 123.609375 133.023438 120.800781 131.246094 C 117.320313 132.820313 111.695313 135.078125 106.589844 136.480469 C 102.820313 137.515625 99.28125 138.089844 96.960938 137.613281 C 96.957031 137.613281 96.796875 137.566406 96.789063 137.566406 C 89.621094 134.65625 83.664063 133.335938 78.625 132.789063 C 78.613281 132.789063 78.597656 132.789063 78.585938 132.792969 C 72.925781 133.265625 68.476563 134.9375 65.5625 137.703125 C 62.945313 140.1875 61.550781 143.601563 61.605469 147.867188 C 64.09375 147.390625 66.652344 147.027344 69.289063 146.675781 C 69.773438 146.609375 70.253906 146.546875 70.382813 147.507813 C 70.511719 148.46875 70.03125 148.535156 69.546875 148.597656 C 65.050781 149.199219 60.785156 149.816406 56.75 151.035156 C 52.800781 152.230469 49.074219 154.015625 45.554688 156.964844 "/>
<path style=" stroke:none;fill-rule:nonzero;fill:rgb(13.699341%,12.199402%,12.5%);fill-opacity:1;" d="M 225.769531 207.316406 C 223.242188 207.972656 220.574219 208.460938 217.792969 208.800781 C 218.289063 213.761719 219.734375 216.285156 221.066406 218.621094 L 221.066406 218.617188 C 222.695313 221.464844 224.179688 224.0625 223.921875 229.863281 C 223.898438 230.347656 223.875 230.835938 222.902344 230.792969 C 221.929688 230.75 221.953125 230.265625 221.972656 229.777344 C 222.207031 224.53125 220.859375 222.171875 219.378906 219.582031 L 219.378906 219.578125 C 217.941406 217.0625 216.390625 214.347656 215.851563 209.011719 C 213.992188 209.1875 212.089844 209.300781 210.144531 209.359375 C 204.550781 209.523438 198.617188 209.210938 192.527344 208.542969 C 192.511719 209.742188 192.433594 210.855469 192.296875 211.855469 C 191.847656 215.085938 190.703125 217.234375 188.96875 217.523438 C 187.238281 217.8125 185.457031 216.148438 183.984375 213.238281 C 182.667969 210.640625 181.507813 206.960938 180.820313 202.828125 C 180.132813 198.695313 180.035156 194.839844 180.4375 191.953125 C 180.886719 188.722656 182.03125 186.574219 183.761719 186.285156 C 185.496094 185.996094 187.273438 187.660156 188.75 190.570313 C 189.328125 191.714844 189.871094 193.066406 190.363281 194.578125 C 196.417969 193.5625 202.488281 193.253906 208.121094 193.511719 C 213.972656 193.777344 219.378906 194.648438 223.847656 195.960938 C 223.804688 194.335938 223.875 192.847656 224.054688 191.566406 C 224.472656 188.558594 225.546875 186.554688 227.179688 186.285156 C 228.808594 186.011719 230.476563 187.554688 231.847656 190.265625 C 233.058594 192.664063 234.132813 196.054688 234.765625 199.867188 C 235.398438 203.675781 235.488281 207.230469 235.117188 209.894531 C 234.699219 212.902344 233.625 214.902344 231.992188 215.175781 C 230.363281 215.449219 228.695313 213.902344 227.324219 211.195313 C 226.769531 210.09375 226.238281 208.78125 225.769531 207.316406 "/>
<path style=" stroke:none;fill-rule:nonzero;fill:rgb(100%,98.799133%,83.499146%);fill-opacity:1;" d="M 227.496094 188.199219 C 226.804688 188.316406 226.273438 189.699219 225.976563 191.832031 C 225.742188 193.511719 225.707031 195.597656 225.898438 197.890625 C 226.34375 197.691406 226.832031 197.578125 227.34375 197.578125 C 228.367188 197.578125 229.292969 198.023438 229.960938 198.738281 C 230.613281 199.441406 231.015625 200.402344 231.015625 201.457031 C 231.015625 202.507813 230.609375 203.472656 229.960938 204.171875 C 229.292969 204.886719 228.367188 205.335938 227.34375 205.335938 C 227.296875 205.335938 227.25 205.335938 227.207031 205.332031 C 227.734375 207.269531 228.375 208.96875 229.058594 210.320313 C 230.03125 212.242188 230.980469 213.375 231.675781 213.257813 C 232.367188 213.144531 232.898438 211.761719 233.195313 209.628906 C 233.539063 207.148438 233.453125 203.804688 232.847656 200.1875 C 232.246094 196.566406 231.242188 193.375 230.113281 191.140625 C 229.140625 189.21875 228.191406 188.085938 227.496094 188.199219 "/>
<path style=" stroke:none;fill-rule:nonzero;fill:rgb(100%,98.799133%,83.499146%);fill-opacity:1;" d="M 184.082031 188.203125 C 183.289063 188.335938 182.6875 189.863281 182.359375 192.222656 C 182.117188 193.976563 182.070313 196.128906 182.246094 198.5 C 183.296875 198.03125 184.390625 197.683594 185.519531 197.46875 C 186.683594 197.246094 187.882813 197.164063 189.121094 197.21875 C 188.527344 194.972656 187.800781 192.992188 187.015625 191.445313 C 185.941406 189.320313 184.878906 188.070313 184.082031 188.203125 "/>
<path style=" stroke:none;fill-rule:nonzero;fill:rgb(13.699341%,12.199402%,12.5%);fill-opacity:1;" d="M 190.089844 201.890625 C 190.058594 201.695313 190.027344 201.496094 189.996094 201.300781 C 189.878906 200.578125 189.742188 199.878906 189.59375 199.195313 C 188.300781 199.089844 187.0625 199.152344 185.875 199.378906 C 184.691406 199.605469 183.550781 199.996094 182.460938 200.546875 C 182.527344 201.09375 182.605469 201.636719 182.691406 202.167969 L 182.691406 202.171875 C 182.75 202.519531 182.808594 202.875 182.878906 203.230469 C 184.054688 202.765625 185.25 202.421875 186.453125 202.199219 C 187.667969 201.976563 188.882813 201.871094 190.089844 201.890625 "/>
<path style=" stroke:none;fill-rule:nonzero;fill:rgb(100%,98.799133%,83.499146%);fill-opacity:1;" d="M 183.257813 205.175781 C 183.90625 208.011719 184.773438 210.496094 185.71875 212.363281 C 186.792969 214.488281 187.855469 215.738281 188.648438 215.605469 C 189.445313 215.472656 190.046875 213.945313 190.371094 211.589844 C 190.664063 209.480469 190.671875 206.800781 190.347656 203.855469 C 189.152344 203.808594 187.96875 203.894531 186.800781 204.109375 C 185.613281 204.328125 184.429688 204.6875 183.257813 205.175781 "/>
<path style=" stroke:none;fill-rule:nonzero;fill:rgb(92.89856%,10.998535%,14.099121%);fill-opacity:1;" d="M 192.5 206.582031 C 198.574219 207.257813 204.496094 207.578125 210.089844 207.410156 C 215.515625 207.253906 220.617188 206.636719 225.226563 205.445313 C 224.90625 204.230469 224.632813 202.9375 224.40625 201.59375 C 224.203125 200.367188 224.054688 199.171875 223.960938 198.019531 C 219.53125 196.648438 214.039063 195.730469 208.039063 195.457031 C 202.597656 195.210938 196.753906 195.496094 190.925781 196.457031 C 191.089844 197.054688 191.242188 197.667969 191.386719 198.300781 C 191.585938 199.023438 191.734375 199.742188 191.851563 200.453125 C 191.921875 200.878906 191.980469 201.3125 192.03125 201.742188 C 192.03125 201.746094 192.035156 201.746094 192.035156 201.75 C 192.035156 201.75 192.035156 201.753906 192.035156 201.753906 C 192.035156 201.765625 192.039063 201.773438 192.039063 201.785156 C 192.039063 201.789063 192.039063 201.792969 192.039063 201.796875 C 192.289063 203.460938 192.4375 205.070313 192.5 206.582031 "/>
<path style=" stroke:none;fill-rule:nonzero;fill:rgb(13.699341%,12.199402%,12.5%);fill-opacity:1;" d="M 78.023438 239.738281 C 66.9375 253.75 62.957031 263.03125 65.394531 269.230469 C 67.820313 275.394531 76.753906 278.765625 91.492188 280.921875 C 91.976563 280.992188 92.457031 281.0625 92.316406 282.023438 C 92.175781 282.988281 91.695313 282.914063 91.210938 282.847656 C 75.75 280.582031 66.316406 276.882813 63.582031 269.9375 C 60.863281 263.023438 64.933594 253.140625 76.496094 238.53125 C 76.796875 238.148438 77.097656 237.765625 77.863281 238.371094 C 78.628906 238.976563 78.324219 239.359375 78.023438 239.738281 "/>
<path style=" stroke:none;fill-rule:nonzero;fill:rgb(13.699341%,12.199402%,12.5%);fill-opacity:1;" d="M 153.195313 237.609375 C 145.515625 247.609375 149.550781 255.289063 153.140625 262.125 C 156.148438 267.847656 158.867188 273.027344 155.089844 278.671875 C 150.128906 286.074219 140.453125 285.273438 132.308594 284.597656 C 128.042969 284.246094 124.21875 283.929688 122.046875 284.886719 C 121.601563 285.085938 121.15625 285.28125 120.765625 284.390625 C 120.371094 283.503906 120.816406 283.304688 121.261719 283.109375 C 123.902344 281.941406 127.949219 282.277344 132.46875 282.652344 C 140.097656 283.285156 149.160156 284.035156 153.476563 277.589844 C 156.613281 272.90625 154.144531 268.214844 151.421875 263.027344 C 147.558594 255.675781 143.21875 247.410156 151.652344 236.429688 C 151.949219 236.046875 152.246094 235.660156 153.015625 236.25 C 153.789063 236.839844 153.492188 237.222656 153.195313 237.609375 "/>
<path style=" stroke:none;fill-rule:nonzero;fill:rgb(13.699341%,12.199402%,12.5%);fill-opacity:1;" d="M 147.054688 235.175781 C 134.789063 235.625 123.203125 235.777344 113.585938 235.0625 C 103.839844 234.339844 96.050781 232.71875 91.511719 229.601563 C 91.109375 229.324219 90.707031 229.050781 91.253906 228.25 C 91.804688 227.445313 92.203125 227.722656 92.605469 227.996094 C 96.824219 230.890625 104.292969 232.417969 113.722656 233.117188 C 123.285156 233.824219 134.800781 233.675781 146.988281 233.230469 C 147.472656 233.210938 147.960938 233.195313 147.992188 234.167969 C 148.027344 235.140625 147.542969 235.15625 147.054688 235.175781 "/>
<path style=" stroke:none;fill-rule:nonzero;fill:rgb(13.699341%,12.199402%,12.5%);fill-opacity:1;" d="M 95.394531 143.472656 C 98.03125 142.527344 101.5625 143.054688 105.171875 144.613281 C 108.328125 145.980469 111.578125 148.148438 114.335938 150.816406 C 117.113281 153.496094 119.402344 156.695313 120.621094 160.097656 C 121.859375 163.550781 122 167.210938 120.457031 170.777344 C 120.265625 171.222656 120.070313 171.671875 119.179688 171.285156 C 118.285156 170.902344 118.480469 170.453125 118.671875 170.007813 C 120 166.941406 119.867188 163.761719 118.789063 160.75 C 117.675781 157.640625 115.5625 154.699219 112.992188 152.214844 C 110.402344 149.714844 107.359375 147.679688 104.40625 146.402344 C 101.226563 145.027344 98.195313 144.535156 96.046875 145.304688 C 95.589844 145.46875 95.128906 145.632813 94.804688 144.71875 C 94.476563 143.800781 94.933594 143.636719 95.394531 143.472656 "/>
<path style=" stroke:none;fill-rule:nonzero;fill:rgb(85.9375%,57.226563%,21.972656%);fill-opacity:1;" d="M 167.597656 332.75 C 168.449219 333.355469 169.277344 334.007813 170.09375 334.699219 L 198.476563 317.171875 C 198.890625 316.914063 199.304688 316.660156 199.816406 317.484375 C 200.324219 318.308594 199.910156 318.5625 199.496094 318.820313 L 171.601563 336.042969 C 172.507813 336.898438 173.394531 337.800781 174.261719 338.746094 L 206.019531 319.394531 C 206.433594 319.140625 206.851563 318.886719 207.355469 319.714844 C 207.859375 320.542969 207.445313 320.796875 207.03125 321.050781 L 175.570313 340.222656 C 176.617188 341.4375 177.640625 342.71875 178.640625 344.042969 L 204.132813 328.304688 C 204.546875 328.050781 204.960938 327.792969 205.46875 328.617188 C 205.976563 329.445313 205.5625 329.699219 205.148438 329.953125 L 179.796875 345.605469 C 180.609375 346.722656 181.410156 347.871094 182.203125 349.039063 L 203.609375 335.503906 C 204.019531 335.242188 204.429688 334.984375 204.949219 335.804688 C 205.464844 336.625 205.054688 336.886719 204.644531 337.144531 L 183.289063 350.648438 C 183.972656 351.683594 184.65625 352.730469 185.335938 353.785156 L 198.460938 345.273438 C 198.867188 345.011719 199.277344 344.746094 199.804688 345.558594 C 200.332031 346.371094 199.925781 346.636719 199.515625 346.902344 L 186.382813 355.417969 C 186.9375 356.285156 187.488281 357.152344 188.039063 358.019531 C 188.085938 358.09375 188.132813 358.164063 188.175781 358.234375 L 194.511719 354.015625 C 194.914063 353.746094 195.320313 353.476563 195.855469 354.285156 C 196.394531 355.09375 195.988281 355.363281 195.585938 355.636719 L 189.21875 359.875 C 197.839844 373.414063 206.789063 386.640625 220.648438 388.503906 C 235.125 390.453125 247.980469 384.636719 258.101563 375.765625 C 264.664063 370.011719 270.085938 362.964844 274.058594 355.90625 C 278.019531 348.867188 280.539063 341.839844 281.3125 336.089844 C 281.664063 333.464844 281.65625 331.121094 281.257813 329.199219 C 279.898438 330.265625 278.578125 331.542969 277.332031 333.085938 L 277.332031 333.089844 C 275.808594 334.972656 274.390625 337.25 273.152344 339.996094 C 272.953125 340.441406 272.753906 340.882813 271.867188 340.484375 C 270.980469 340.085938 271.179688 339.640625 271.382813 339.199219 C 272.695313 336.28125 274.199219 333.867188 275.820313 331.863281 L 275.820313 331.867188 C 277.339844 329.984375 278.96875 328.464844 280.644531 327.222656 C 280.351563 326.554688 279.992188 325.964844 279.558594 325.46875 C 279.035156 324.875 278.4375 324.382813 277.761719 323.984375 C 275.113281 325.429688 272.507813 327.261719 269.992188 329.398438 C 267.269531 331.714844 264.660156 334.386719 262.21875 337.308594 C 261.90625 337.683594 261.597656 338.054688 260.851563 337.433594 C 260.105469 336.808594 260.417969 336.433594 260.730469 336.0625 C 263.238281 333.058594 265.925781 330.304688 268.734375 327.917969 C 270.917969 326.0625 273.175781 324.425781 275.492188 323.046875 C 273.101563 322.417969 270.167969 322.550781 266.914063 323.300781 C 260.769531 324.714844 253.558594 328.308594 246.699219 333.105469 C 246.632813 333.164063 246.554688 333.21875 246.480469 333.269531 C 245.269531 334.125 243.730469 335.335938 242.203125 336.652344 C 240.839844 337.828125 239.480469 339.09375 238.367188 340.265625 C 238.03125 340.621094 237.699219 340.972656 236.996094 340.304688 C 236.292969 339.636719 236.628906 339.28125 236.960938 338.929688 C 238.117188 337.707031 239.523438 336.398438 240.929688 335.1875 C 242.078125 334.199219 243.222656 333.269531 244.242188 332.5 C 242.640625 326.417969 240.320313 320.921875 237.285156 316.015625 C 234.230469 311.082031 230.449219 306.730469 225.9375 302.960938 C 214.25 303.84375 202.605469 304.492188 191.015625 304.882813 C 189.90625 306.90625 188.714844 308.867188 187.445313 310.765625 L 199.234375 304.792969 C 199.671875 304.574219 200.105469 304.355469 200.539063 305.222656 C 200.976563 306.089844 200.542969 306.308594 200.109375 306.527344 L 185.0625 314.152344 C 183.550781 316.183594 181.949219 318.148438 180.253906 320.058594 C 178.328125 322.21875 176.285156 324.308594 174.125 326.34375 L 203.609375 307.753906 C 204.019531 307.492188 204.433594 307.234375 204.949219 308.054688 C 205.464844 308.875 205.054688 309.136719 204.644531 309.394531 L 167.597656 332.75 "/>
<path style=" stroke:none;fill-rule:nonzero;fill:rgb(85.9375%,57.226563%,21.972656%);fill-opacity:1;" d="M 70.40625 357.136719 C 68.453125 358.730469 66.308594 360.171875 63.957031 361.394531 C 62.921875 361.929688 61.851563 362.421875 60.734375 362.867188 C 66.683594 362.90625 72.621094 361.585938 77.8125 359.289063 C 84.390625 356.378906 89.738281 351.90625 92.3125 346.667969 L 92.316406 346.664063 C 92.964844 345.351563 93.433594 343.992188 93.703125 342.59375 C 88.003906 340.714844 83.089844 338.515625 79.058594 335.867188 C 74.761719 333.042969 71.460938 329.695313 69.277344 325.671875 C 69.042969 325.246094 68.8125 324.816406 69.667969 324.351563 C 70.523438 323.890625 70.753906 324.316406 70.984375 324.746094 C 73.007813 328.46875 76.09375 331.585938 80.132813 334.238281 C 84.222656 336.929688 89.289063 339.148438 95.207031 341.035156 C 95.285156 341.0625 95.355469 341.085938 95.429688 341.113281 C 109.25 345.152344 121.800781 346.144531 133.269531 344.46875 C 144.8125 342.78125 155.28125 338.390625 164.878906 331.679688 C 164.910156 331.65625 164.945313 331.640625 164.988281 331.625 C 170.121094 327.582031 174.734375 323.339844 178.800781 318.765625 C 180.355469 317.011719 181.835938 315.210938 183.230469 313.359375 C 183.191406 312.953125 183.46875 312.785156 183.769531 312.628906 C 185.574219 310.175781 187.234375 307.621094 188.753906 304.957031 C 174.925781 305.382813 161.175781 305.441406 147.53125 305.089844 C 121.671875 304.425781 96.183594 302.273438 71.21875 298.351563 C 61.429688 300.769531 53.421875 308.429688 47.9375 317.621094 C 44.597656 323.21875 42.195313 329.390625 40.902344 335.292969 C 39.617188 341.15625 39.425781 346.738281 40.492188 351.214844 C 41.378906 354.9375 43.136719 357.871094 45.855469 359.519531 C 46.144531 359.660156 46.433594 359.796875 46.726563 359.925781 C 49.726563 358.738281 52.335938 357.242188 54.671875 355.464844 C 57.074219 353.632813 59.191406 351.503906 61.15625 349.09375 C 61.460938 348.714844 61.769531 348.339844 62.523438 348.949219 C 63.277344 349.5625 62.96875 349.941406 62.660156 350.316406 C 60.597656 352.847656 58.375 355.085938 55.847656 357.007813 C 53.863281 358.519531 51.695313 359.835938 49.273438 360.949219 C 51.335938 361.671875 53.457031 362.179688 55.605469 362.488281 C 55.667969 362.472656 55.726563 362.457031 55.792969 362.441406 C 58.425781 361.765625 60.84375 360.820313 63.066406 359.667969 C 65.285156 358.519531 67.316406 357.152344 69.171875 355.632813 C 69.546875 355.324219 69.925781 355.015625 70.542969 355.769531 C 71.15625 356.523438 70.78125 356.832031 70.40625 357.136719 "/>
<path style=" stroke:none;fill-rule:nonzero;fill:rgb(13.699341%,12.199402%,12.5%);fill-opacity:1;" d="M 239.6875 371.300781 L 239.683594 371.300781 C 239.835938 371.382813 239.972656 371.480469 240.09375 371.589844 L 240.101563 371.59375 C 240.6875 372.117188 240.984375 372.964844 240.945313 373.972656 C 240.914063 374.824219 240.636719 375.832031 240.078125 376.863281 C 239.730469 377.511719 239.273438 378.175781 238.695313 378.820313 C 237.542969 380.101563 236.28125 380.945313 235.121094 381.414063 C 233.625 382.015625 232.226563 382 231.324219 381.511719 C 231.171875 381.429688 231.027344 381.328125 230.898438 381.214844 C 230.304688 380.683594 229.96875 379.804688 229.976563 378.761719 C 229.980469 377.851563 230.246094 376.777344 230.828125 375.691406 C 231.148438 375.097656 231.5625 374.496094 232.085938 373.914063 C 233.222656 372.644531 234.519531 371.824219 235.730469 371.371094 C 237.304688 370.78125 238.789063 370.820313 239.6875 371.300781 "/>
<path style=" stroke:none;fill-rule:nonzero;fill:rgb(13.699341%,12.199402%,12.5%);fill-opacity:1;" d="M 252.191406 371.128906 L 252.1875 371.128906 C 252.339844 371.210938 252.480469 371.308594 252.601563 371.417969 L 252.609375 371.421875 C 253.195313 371.949219 253.492188 372.796875 253.453125 373.800781 C 253.417969 374.652344 253.140625 375.660156 252.585938 376.695313 C 252.238281 377.339844 251.777344 378.007813 251.199219 378.648438 C 250.046875 379.933594 248.785156 380.773438 247.628906 381.242188 C 246.128906 381.84375 244.730469 381.828125 243.828125 381.339844 C 243.675781 381.257813 243.53125 381.160156 243.402344 381.042969 C 242.808594 380.511719 242.476563 379.632813 242.480469 378.589844 C 242.488281 377.679688 242.75 376.605469 243.332031 375.519531 C 243.652344 374.925781 244.066406 374.324219 244.589844 373.746094 C 245.730469 372.472656 247.027344 371.652344 248.234375 371.199219 C 249.808594 370.609375 251.296875 370.648438 252.191406 371.128906 "/>
<path style=" stroke:none;fill-rule:nonzero;fill:rgb(13.699341%,12.199402%,12.5%);fill-opacity:1;" d="M 266.410156 355.714844 L 266.40625 355.714844 C 266.558594 355.792969 266.695313 355.890625 266.816406 356 L 266.824219 356.003906 C 267.414063 356.53125 267.710938 357.378906 267.671875 358.386719 C 267.636719 359.234375 267.359375 360.242188 266.804688 361.277344 C 266.457031 361.925781 265.996094 362.589844 265.417969 363.230469 C 264.265625 364.515625 263.003906 365.359375 261.84375 365.824219 C 260.347656 366.425781 258.949219 366.410156 258.046875 365.925781 C 257.894531 365.84375 257.75 365.742188 257.621094 365.625 C 257.027344 365.09375 256.691406 364.214844 256.699219 363.171875 C 256.703125 362.261719 256.96875 361.1875 257.550781 360.101563 C 257.871094 359.507813 258.285156 358.90625 258.808594 358.328125 C 259.945313 357.058594 261.242188 356.234375 262.453125 355.78125 C 264.027344 355.191406 265.511719 355.230469 266.410156 355.714844 "/>
<path style=" stroke:none;fill-rule:nonzero;fill:rgb(13.699341%,12.199402%,12.5%);fill-opacity:1;" d="M 265.554688 342.523438 L 265.550781 342.523438 C 265.703125 342.605469 265.839844 342.703125 265.960938 342.808594 L 265.96875 342.8125 C 266.554688 343.339844 266.851563 344.1875 266.8125 345.195313 C 266.777344 346.046875 266.503906 347.050781 265.945313 348.085938 C 265.597656 348.734375 265.140625 349.398438 264.5625 350.042969 C 263.410156 351.324219 262.148438 352.167969 260.988281 352.632813 C 259.492188 353.234375 258.09375 353.21875 257.1875 352.734375 C 257.035156 352.652344 256.894531 352.550781 256.761719 352.433594 C 256.171875 351.902344 255.835938 351.027344 255.84375 349.980469 C 255.847656 349.074219 256.113281 348 256.695313 346.914063 C 257.011719 346.320313 257.429688 345.71875 257.949219 345.136719 C 259.089844 343.867188 260.386719 343.042969 261.59375 342.59375 C 263.171875 342 264.65625 342.039063 265.554688 342.523438 "/>
<path style=" stroke:none;fill-rule:nonzero;fill:rgb(13.699341%,12.199402%,12.5%);fill-opacity:1;" d="M 249.109375 350.402344 L 249.105469 350.402344 C 249.257813 350.484375 249.394531 350.582031 249.515625 350.691406 L 249.523438 350.695313 C 250.109375 351.21875 250.40625 352.066406 250.367188 353.074219 C 250.335938 353.925781 250.058594 354.933594 249.503906 355.964844 C 249.152344 356.613281 248.695313 357.277344 248.117188 357.921875 C 246.964844 359.203125 245.703125 360.046875 244.542969 360.511719 C 243.046875 361.117188 241.648438 361.097656 240.742188 360.613281 C 240.589844 360.53125 240.449219 360.429688 240.316406 360.316406 C 239.726563 359.78125 239.390625 358.90625 239.398438 357.859375 C 239.402344 356.953125 239.667969 355.878906 240.25 354.792969 C 240.566406 354.199219 240.984375 353.597656 241.503906 353.015625 C 242.644531 351.746094 243.941406 350.925781 245.148438 350.472656 C 246.726563 349.882813 248.210938 349.921875 249.109375 350.402344 "/>
</g>
</svg>
